<mxfile host="app.diagrams.net" agent="Mozilla/5.0 (Windows NT 10.0; Win64; x64) AppleWebKit/537.36 (KHTML, like Gecko) Chrome/139.0.0.0 Safari/537.36" version="28.2.0">
  <diagram name="Page-1" id="aOkDGlLZr2ncqZES9CxI">
    <mxGraphModel dx="872" dy="439" grid="1" gridSize="10" guides="1" tooltips="1" connect="1" arrows="1" fold="1" page="1" pageScale="1" pageWidth="850" pageHeight="1100" math="0" shadow="0">
      <root>
        <mxCell id="0" />
        <mxCell id="1" parent="0" />
        <mxCell id="MSnXm-4jcjSNovlkUJMa-3" value="" style="edgeStyle=orthogonalEdgeStyle;rounded=0;orthogonalLoop=1;jettySize=auto;html=1;" edge="1" parent="1" source="MSnXm-4jcjSNovlkUJMa-10" target="MSnXm-4jcjSNovlkUJMa-2">
          <mxGeometry relative="1" as="geometry" />
        </mxCell>
        <mxCell id="MSnXm-4jcjSNovlkUJMa-1" value="&lt;div&gt;User Interface (HTML)&amp;nbsp; &amp;nbsp;&amp;nbsp;&lt;/div&gt;&lt;div&gt;&lt;span style=&quot;background-color: transparent; color: light-dark(rgb(0, 0, 0), rgb(255, 255, 255));&quot;&gt;Input fields, Buttons&lt;/span&gt;&lt;/div&gt;" style="rounded=0;whiteSpace=wrap;html=1;" vertex="1" parent="1">
          <mxGeometry x="130" y="60" width="120" height="60" as="geometry" />
        </mxCell>
        <mxCell id="MSnXm-4jcjSNovlkUJMa-5" value="" style="edgeStyle=orthogonalEdgeStyle;rounded=0;orthogonalLoop=1;jettySize=auto;html=1;" edge="1" parent="1" source="MSnXm-4jcjSNovlkUJMa-2" target="MSnXm-4jcjSNovlkUJMa-4">
          <mxGeometry relative="1" as="geometry" />
        </mxCell>
        <mxCell id="MSnXm-4jcjSNovlkUJMa-2" value="Event Handlers (JavaScript)" style="whiteSpace=wrap;html=1;rounded=0;" vertex="1" parent="1">
          <mxGeometry x="350" y="160" width="120" height="60" as="geometry" />
        </mxCell>
        <mxCell id="MSnXm-4jcjSNovlkUJMa-7" value="" style="edgeStyle=orthogonalEdgeStyle;rounded=0;orthogonalLoop=1;jettySize=auto;html=1;" edge="1" parent="1" source="MSnXm-4jcjSNovlkUJMa-4" target="MSnXm-4jcjSNovlkUJMa-6">
          <mxGeometry relative="1" as="geometry" />
        </mxCell>
        <mxCell id="MSnXm-4jcjSNovlkUJMa-4" value="&lt;div&gt;Add, Delete, Complete&amp;nbsp; &amp;nbsp; &amp;nbsp;&lt;span style=&quot;background-color: transparent; color: light-dark(rgb(0, 0, 0), rgb(255, 255, 255));&quot;&gt;Search, Dark Mode&lt;/span&gt;&lt;/div&gt;" style="shape=process;whiteSpace=wrap;html=1;backgroundOutline=1;" vertex="1" parent="1">
          <mxGeometry x="310" y="260" width="120" height="60" as="geometry" />
        </mxCell>
        <mxCell id="MSnXm-4jcjSNovlkUJMa-9" value="" style="edgeStyle=orthogonalEdgeStyle;rounded=0;orthogonalLoop=1;jettySize=auto;html=1;" edge="1" parent="1" source="MSnXm-4jcjSNovlkUJMa-6" target="MSnXm-4jcjSNovlkUJMa-8">
          <mxGeometry relative="1" as="geometry" />
        </mxCell>
        <mxCell id="MSnXm-4jcjSNovlkUJMa-6" value="&lt;div&gt;Task Logic &amp;amp; Storage API&amp;nbsp;&amp;nbsp;&lt;/div&gt;&lt;div&gt;&amp;nbsp;saveTasks(),&lt;/div&gt;&lt;div&gt;&amp;nbsp;loadTasks()&amp;nbsp;&amp;nbsp;&lt;/div&gt;&lt;div&gt;&lt;span style=&quot;background-color: transparent; color: light-dark(rgb(0, 0, 0), rgb(255, 255, 255));&quot;&gt;Data management&lt;/span&gt;&lt;/div&gt;" style="shape=process;whiteSpace=wrap;html=1;backgroundOutline=1;" vertex="1" parent="1">
          <mxGeometry x="300" y="370" width="140" height="90" as="geometry" />
        </mxCell>
        <mxCell id="MSnXm-4jcjSNovlkUJMa-8" value="Local Storage (JSON format storage )" style="rounded=1;whiteSpace=wrap;html=1;" vertex="1" parent="1">
          <mxGeometry x="550" y="385" width="120" height="60" as="geometry" />
        </mxCell>
        <mxCell id="MSnXm-4jcjSNovlkUJMa-11" value="" style="edgeStyle=orthogonalEdgeStyle;rounded=0;orthogonalLoop=1;jettySize=auto;html=1;" edge="1" parent="1" source="MSnXm-4jcjSNovlkUJMa-1" target="MSnXm-4jcjSNovlkUJMa-10">
          <mxGeometry relative="1" as="geometry">
            <mxPoint x="250" y="90" as="sourcePoint" />
            <mxPoint x="370" y="160" as="targetPoint" />
          </mxGeometry>
        </mxCell>
        <mxCell id="MSnXm-4jcjSNovlkUJMa-10" value="UI Styling (CSS)&amp;nbsp;&lt;div&gt;Layouts, colors, themes&lt;/div&gt;" style="rounded=1;whiteSpace=wrap;html=1;" vertex="1" parent="1">
          <mxGeometry x="300" y="60" width="120" height="60" as="geometry" />
        </mxCell>
      </root>
    </mxGraphModel>
  </diagram>
</mxfile>
